PathFileType	4	(X/Y/Z)	C:/Users/opensim2020/Desktop/walking_exp_matlab/subject02_walking06_static.trc	
DataRate	CameraRate	NumFrames	NumMarkers	Units	OrigDataRate	OrigDataStartFrame	OrigNumFrames	
100.00	100.00	7	41	mm	100.00	108	287	
Frame#	Time	LFHD			RFHD			LBHD			RBHD			C7			T10			CLAV			STRN			RBAK			LSHO			LUPA			LELB			LFRM			LWRA			LWRB			LFIN			RSHO			RUPA			RELB			RFRM			RWRA			RWRB			RFIN			LASI			RASI			LPSI			RPSI			LTHI			LKNE			LTIB			LANK			LHEE			LTOE			RTHI			RKNE			RTIB			RANK			RHEE			RTOE			*39			*40			
		X1	Y1	Z1	X2	Y2	Z2	X3	Y3	Z3	X4	Y4	Z4	X5	Y5	Z5	X6	Y6	Z6	X7	Y7	Z7	X8	Y8	Z8	X9	Y9	Z9	X10	Y10	Z10	X11	Y11	Z11	X12	Y12	Z12	X13	Y13	Z13	X14	Y14	Z14	X15	Y15	Z15	X16	Y16	Z16	X17	Y17	Z17	X18	Y18	Z18	X19	Y19	Z19	X20	Y20	Z20	X21	Y21	Z21	X22	Y22	Z22	X23	Y23	Z23	X24	Y24	Z24	X25	Y25	Z25	X26	Y26	Z26	X27	Y27	Z27	X28	Y28	Z28	X29	Y29	Z29	X30	Y30	Z30	X31	Y31	Z31	X32	Y32	Z32	X33	Y33	Z33	X34	Y34	Z34	X35	Y35	Z35	X36	Y36	Z36	X37	Y37	Z37	X38	Y38	Z38	X39	Y39	Z39	X40	Y40	Z40	X41	Y41	Z41	

108	1.070	-19.39216	-695.75391	1750.89697	-5.01638	-554.16663	1732.70251	103.06721	-719.02313	1665.59937	130.01427	-579.21960	1644.87219	152.48103	-645.53735	1523.49744	193.58305	-641.41333	1248.70166	2.30335	-652.34222	1472.88977	-62.19864	-640.73828	1306.98694	191.42903	-570.10455	1351.56934	53.50001	-820.27356	1513.64868	48.13643	-927.35022	1330.69397	57.32438	-955.13037	1189.86597	41.48879	-964.77808	1054.62939	-5.76054	-917.36877	932.24158	31.08386	-960.13562	931.86688	7.91888	-958.72583	870.01587	56.55398	-462.76480	1511.71777	58.11727	-347.06396	1342.19641	36.59997	-316.43973	1194.60498	-0.87761	-308.05112	1076.33557	-42.45066	-343.30295	951.19556	-11.63673	-296.35016	946.21863	-51.01685	-307.81488	886.70831	-39.20624	-759.76477	993.71094	-28.41039	-509.28543	985.89880	173.37473	-692.23840	1028.49573	182.62692	-577.49768	1029.97192	35.83696	-839.77759	686.14783	69.84457	-829.07452	484.16690	125.52444	-852.67139	299.41498	116.19635	-847.38733	72.31764	151.65094	-801.43298	40.81305	-42.83152	-860.34570	30.97601	59.96867	-416.96664	682.85791	59.94180	-432.92218	471.68674	111.78352	-404.92789	292.15536	134.02327	-415.49792	97.02314	166.51051	-465.27988	37.35187	-15.32586	-379.78165	37.99986	97.34588	-619.11865	1808.37451	-3357.17651	2845.67969	1034.02527 
109	1.080	-19.40707	-695.99994	1751.01904	-5.11518	-554.21429	1732.68188	103.13906	-718.95850	1665.60913	129.95905	-579.14508	1644.88000	152.48169	-645.42932	1523.46069	193.55989	-641.31250	1248.67676	2.27770	-652.36871	1472.87109	-62.21735	-640.75690	1306.91003	191.38898	-570.04047	1351.57324	53.76231	-820.26978	1513.57935	48.47259	-927.26337	1330.61267	57.40343	-954.93854	1189.69556	41.33244	-964.22559	1054.40967	-6.17523	-916.48517	932.29755	30.64676	-959.65283	931.78625	7.32306	-957.70630	869.89441	56.50212	-462.71994	1511.68713	57.70007	-347.46045	1341.99451	36.56997	-316.49905	1194.54456	-0.92786	-308.27786	1076.26233	-42.34053	-343.45526	951.26465	-11.57877	-296.58411	946.04944	-51.06201	-308.15009	886.73651	-39.26545	-759.73956	993.68829	-28.48982	-509.25876	985.88983	173.33206	-692.21588	1028.48071	182.58524	-577.45874	1029.94812	35.75361	-839.77051	686.15222	69.77072	-829.06055	484.15729	125.48573	-852.66998	299.43765	116.19482	-847.38440	72.32031	151.66757	-801.43384	40.84991	-42.83192	-860.32831	30.97943	60.19456	-416.49213	682.93817	60.02372	-432.76306	471.67926	111.79333	-404.92603	292.17322	134.03690	-415.47183	97.01173	166.68915	-465.24414	37.47690	-15.33839	-379.78485	38.02609	97.30745	-619.05072	1808.35193	-3360.24512	2845.15625	1034.06653 
110	1.090	-19.30915	-695.84906	1750.92114	-5.17694	-554.23212	1732.69177	103.20605	-718.90021	1665.63391	129.86794	-579.05542	1644.86218	152.48882	-645.34375	1523.42566	193.50850	-641.22284	1248.66187	2.29178	-652.38898	1472.82703	-62.24607	-640.74811	1306.82202	191.36687	-569.89844	1351.58667	54.03411	-820.27502	1513.54224	48.86318	-927.17249	1330.57300	57.48816	-954.80670	1189.53320	41.16591	-963.67767	1054.21216	-6.62196	-915.61334	932.33850	30.22963	-958.76416	931.63062	6.78927	-956.66669	869.86993	56.42571	-462.68567	1511.69702	57.68708	-347.48721	1341.93835	36.51711	-316.53311	1194.46729	-1.05702	-308.46960	1076.18896	-42.87362	-343.88910	951.18964	-11.95083	-297.23785	945.90002	-51.24003	-308.57068	886.59570	-39.33282	-759.71832	993.66815	-28.55962	-509.22067	985.87054	173.26378	-692.19568	1028.46948	182.50531	-577.42035	1029.91956	35.63919	-839.75616	686.16412	69.69805	-829.04620	484.18387	125.41822	-852.67633	299.44974	116.17090	-847.40009	72.36118	151.66220	-801.40680	40.80170	-42.85143	-860.33887	30.98931	59.89316	-416.94498	682.83917	59.94436	-432.89417	471.68262	111.78060	-404.87631	292.18890	134.01013	-415.46634	97.00871	166.68198	-465.23026	37.50899	-15.31187	-379.79309	38.00784	97.29189	-618.95404	1808.34888	-3357.38477	2845.73267	1033.92725 
111	1.100	-19.31256	-696.07452	1751.04932	-5.30172	-554.24829	1732.69592	103.23016	-718.87775	1665.62537	129.82607	-578.99811	1644.84253	152.49881	-645.23804	1523.37097	193.47479	-641.12579	1248.63159	2.26574	-652.38611	1472.78613	-62.30128	-640.72742	1306.77551	191.30550	-569.86768	1351.58008	54.30017	-820.30597	1513.55298	49.14648	-927.25201	1330.49207	57.63942	-954.71118	1189.41138	41.00665	-963.26074	1054.11646	-7.01429	-914.76776	932.48346	29.72556	-958.04199	931.57025	6.16556	-955.71124	869.85303	56.31974	-462.63904	1511.66736	57.65728	-347.39648	1341.90405	36.54219	-316.57440	1194.42346	-1.07531	-308.63174	1076.10718	-42.27297	-344.14655	951.15778	-12.01173	-297.48529	945.84192	-51.26506	-308.90298	886.56732	-39.43494	-759.67877	993.66254	-28.62980	-509.19745	985.85663	173.20505	-692.17664	1028.45581	182.44386	-577.39868	1029.91736	35.55051	-839.75110	686.16315	69.61738	-829.05542	484.18393	125.18812	-852.47034	299.30206	116.16829	-847.38068	72.32742	151.63515	-801.35559	40.78425	-42.85781	-860.34857	30.98800	59.88761	-416.92383	682.83551	59.99096	-432.74121	471.69760	111.76777	-404.91214	292.16937	134.01331	-415.45944	97.03336	166.53589	-465.27228	37.37139	-15.31685	-379.77124	37.99844	97.26331	-618.90173	1808.34436	-3357.32617	2845.84888	1033.97205 
112	1.110	-19.27449	-696.11615	1751.05286	-5.34945	-554.28082	1732.69189	103.30917	-718.79285	1665.62341	129.77357	-578.91925	1644.80981	152.51566	-645.15979	1523.33545	193.46159	-641.03955	1248.60522	2.24807	-652.38062	1472.78894	-62.34143	-640.69330	1306.72815	191.27856	-569.85382	1351.59900	54.58924	-820.23126	1513.42773	49.47405	-927.22723	1330.47852	57.81202	-954.60754	1189.32861	40.85130	-962.85602	1054.04956	-7.37426	-913.93005	932.66028	29.23957	-957.22980	931.53735	5.56169	-954.48920	869.76697	56.17156	-462.51956	1511.66492	58.03739	-346.93533	1342.03540	36.52142	-316.59302	1194.36292	-1.17362	-308.76797	1076.04431	-42.20229	-344.70605	950.94971	-11.97408	-297.23282	946.04468	-51.45401	-309.23254	886.57318	-39.49670	-759.63892	993.65930	-28.70108	-509.13620	985.86078	173.12495	-692.15289	1028.45349	182.37305	-577.36938	1029.89587	35.45891	-839.72638	686.17169	69.55890	-829.00024	484.16180	125.31097	-852.62335	299.45972	116.17677	-847.37323	72.35050	151.65570	-801.41791	40.87073	-42.84872	-860.31982	30.98347	60.16559	-416.47742	682.92480	59.85483	-432.83289	471.67371	111.76880	-404.90433	292.16422	134.03256	-415.47223	97.02667	166.73280	-465.29501	37.52271	-15.31620	-379.76913	38.00375	97.26608	-618.82422	1808.33740	-3360.31714	2845.07642	1034.00952 
113	1.120	-19.22728	-696.16669	1751.04248	-5.44022	-554.29968	1732.69812	103.34542	-718.73444	1665.62488	129.70428	-578.81567	1644.81982	152.52460	-645.03656	1523.27856	193.41000	-640.93671	1248.59973	2.24630	-652.37366	1472.75574	-62.40601	-640.64661	1306.68652	191.23436	-569.74634	1351.57251	54.90421	-820.18439	1513.43787	49.92623	-927.10052	1330.54419	58.00162	-954.63275	1189.31702	40.70701	-962.45929	1054.00476	-7.73986	-913.14398	932.87866	28.70683	-956.48999	931.51898	4.87058	-953.63000	869.89294	56.06319	-462.44574	1511.64819	57.57397	-347.25836	1341.84241	36.46201	-316.59131	1194.27600	-1.22742	-308.90390	1075.98010	-42.40527	-344.74545	951.12714	-12.26154	-297.98196	945.67236	-51.74091	-309.60162	886.50885	-39.54743	-759.56946	993.64972	-28.75189	-509.08362	985.84210	173.04568	-692.12628	1028.43677	182.31961	-577.33081	1029.87622	35.35183	-839.68701	686.17566	69.48777	-828.97198	484.16333	125.13740	-852.43286	299.31451	116.17484	-847.36090	72.34827	151.65028	-801.38458	40.81734	-42.85044	-860.33612	31.00050	60.09416	-416.43384	682.94189	59.73999	-432.81912	471.77765	111.70924	-404.83286	292.15695	133.97943	-415.44391	97.02976	166.72578	-465.19534	37.43013	-15.32924	-379.77216	37.99955	97.24502	-618.79395	1808.32324	-3357.29663	2845.82861	1034.06580 
114	1.130	-19.18689	-696.17853	1751.03137	-5.46277	-554.32660	1732.69067	103.38119	-718.68140	1665.58984	129.63014	-578.76318	1644.79614	152.52594	-644.94287	1523.20544	193.39818	-640.85931	1248.58459	2.24015	-652.34277	1472.72107	-62.46719	-640.58862	1306.64380	191.25124	-569.67621	1351.55444	55.19718	-820.10870	1513.43665	50.14890	-927.29187	1330.60327	58.21225	-954.63556	1189.34351	40.56544	-962.15430	1054.00635	-8.15659	-912.36536	933.13861	28.16674	-955.90100	931.59479	4.27430	-952.44507	869.87292	56.15648	-462.45810	1511.64771	58.03000	-346.89691	1341.88879	36.44917	-316.61304	1194.18811	-1.29693	-309.00443	1075.90076	-43.04070	-344.99176	951.05591	-12.21825	-297.87576	945.71368	-52.01181	-309.74808	886.49359	-39.62851	-759.51715	993.63647	-28.82720	-509.01053	985.82813	172.97433	-692.10150	1028.42102	182.27831	-577.31494	1029.88513	35.26424	-839.68842	686.16650	69.41128	-828.93958	484.15295	125.06556	-852.42108	299.31427	116.15904	-847.35852	72.34260	151.65254	-801.40552	40.82679	-42.84697	-860.33270	30.99281	59.76000	-416.84695	682.84796	59.68761	-432.77179	471.70078	111.65981	-404.81992	292.16266	133.98674	-415.48898	97.00336	166.53717	-465.32654	37.38534	-15.31898	-379.78131	37.98555	97.23664	-618.76337	1808.30371	-3357.16113	2845.81543	1033.99719 
